<?xml version="1.0" encoding="UTF-8" standalone="no"?>
<!-- Created with Inkscape (http://www.inkscape.org/) -->

<svg
   width="202.51118mm"
   height="34.141006mm"
   viewBox="0 0 202.51118 34.141006"
   version="1.1"
   id="svg5"
   inkscape:version="1.1.2 (0a00cf5339, 2022-02-04)"
   sodipodi:docname="pimelon-ui.svg"
   xmlns:inkscape="http://www.inkscape.org/namespaces/inkscape"
   xmlns:sodipodi="http://sodipodi.sourceforge.net/DTD/sodipodi-0.dtd"
   xmlns="http://www.w3.org/2000/svg"
   xmlns:svg="http://www.w3.org/2000/svg">
  <sodipodi:namedview
     id="namedview7"
     pagecolor="#ffffff"
     bordercolor="#666666"
     borderopacity="1.0"
     inkscape:pageshadow="2"
     inkscape:pageopacity="0.0"
     inkscape:pagecheckerboard="0"
     inkscape:document-units="mm"
     showgrid="false"
     inkscape:zoom="0.75187991"
     inkscape:cx="375.72489"
     inkscape:cy="221.44494"
     inkscape:window-width="1850"
     inkscape:window-height="1016"
     inkscape:window-x="70"
     inkscape:window-y="27"
     inkscape:window-maximized="1"
     inkscape:current-layer="layer1" />
  <defs
     id="defs2" />
  <g
     inkscape:label="Layer 1"
     inkscape:groupmode="layer"
     id="layer1"
     transform="translate(-4.349562,-101.34603)">
    <g
       aria-label="pimelon-ui"
       transform="scale(0.9768611,1.023687)"
       id="text12075"
       style="font-size:34.4616px;line-height:1.25;stroke-width:0.25846">
      <path
         d="m 12.445393,122.45776 -1.968754,9.89425 H 4.4525901 l 5.1995287,-26.01447 h 6.0240492 l -0.555289,2.75962 q 1.581733,-1.64904 3.247602,-2.42308 1.665868,-0.79086 3.634622,-0.79086 3.483179,0 5.165875,2.77644 1.699522,2.75962 0.82452,7.1178 -0.875001,4.35818 -3.668276,7.13463 -2.793274,2.75962 -6.276453,2.75962 -1.968754,0 -3.331737,-0.77404 -1.346156,-0.79086 -2.271639,-2.43991 z m 6.444723,-12.19954 q -1.935099,0 -3.247602,1.43029 -1.312502,1.41347 -1.850965,4.08895 -0.538462,2.67549 0.201924,4.10578 0.757213,1.41346 2.692312,1.41346 1.9351,0 3.230776,-1.41346 1.312502,-1.41346 1.850964,-4.10578 0.538463,-2.69231 -0.201923,-4.10577 -0.740386,-1.41347 -2.675486,-1.41347 z"
         style="font-style:italic;font-weight:bold;-inkscape-font-specification:'sans-serif Bold Italic'"
         id="path63557" />
      <path
         d="m 34.320433,106.33754 h 6.024049 l -3.769237,18.84619 h -6.02405 z m 1.463945,-7.336549 h 6.024049 l -0.975963,4.913469 h -6.02405 z"
         style="font-style:italic;font-weight:bold;-inkscape-font-specification:'sans-serif Bold Italic'"
         id="path63559" />
      <path
         d="m 62.976734,109.46736 q 1.497599,-1.75001 3.247602,-2.65866 1.750004,-0.92548 3.634622,-0.92548 3.247603,0 4.543278,2.0024 1.312502,2.00241 0.538463,5.82213 l -2.288466,11.47598 h -6.057704 l 1.968754,-9.82694 q 0.05048,-0.21875 0.100962,-0.45433 0.06731,-0.23558 0.151442,-0.67308 0.403847,-2.0024 -0.01683,-2.89423 -0.403846,-0.90866 -1.716349,-0.90866 -1.716349,0 -2.92789,1.41347 -1.21154,1.41346 -1.783657,4.08895 l -1.850965,9.25482 h -6.057703 l 1.968753,-9.82694 q 0.622598,-3.12981 0.252405,-4.02164 -0.353366,-0.90866 -1.733177,-0.90866 -1.733176,0 -2.961543,1.43029 -1.211541,1.41347 -1.750004,4.0553 l -1.850964,9.27165 H 42.330062 L 46.0993,106.33754 h 6.057703 l -0.555289,2.75962 q 1.430291,-1.59856 3.028851,-2.40625 1.598561,-0.80769 3.331737,-0.80769 1.951927,0 3.264429,0.9423 1.312503,0.94231 1.750003,2.64184 z"
         style="font-style:italic;font-weight:bold;-inkscape-font-specification:'sans-serif Bold Italic'"
         id="path63561" />
      <path
         d="m 98.986418,115.71016 -0.353366,1.71635 h -14.08416 q -0.201924,2.12019 0.891828,3.18029 1.110579,1.0601 3.466353,1.0601 1.901446,0 4.004815,-0.55529 2.103369,-0.57212 4.442316,-1.71635 l -0.925483,4.64424 q -2.305293,0.80769 -4.52645,1.21154 -2.221158,0.42067 -4.358181,0.42067 -5.115394,0 -7.437514,-2.59135 -2.305293,-2.60818 -1.362983,-7.3029 0.925482,-4.61058 4.223565,-7.25241 3.31491,-2.64183 8.194727,-2.64183 4.442315,0 6.579338,2.67548 2.137024,2.67549 1.245195,7.15146 z m -5.805299,-2.00241 q 0.353366,-1.71635 -0.437501,-2.75962 -0.790867,-1.0601 -2.406254,-1.0601 -1.750003,0 -3.045679,0.99279 -1.295675,0.97596 -1.935099,2.82693 z"
         style="font-style:italic;font-weight:bold;-inkscape-font-specification:'sans-serif Bold Italic'"
         id="path63563" />
      <path
         d="m 106.87826,99.000991 h 6.02404 l -5.23318,26.182739 h -6.02405 z"
         style="font-style:italic;font-weight:bold;-inkscape-font-specification:'sans-serif Bold Italic'"
         id="path63565" />
      <path
         d="m 125.42156,110.19092 q -2.00241,0 -3.34856,1.44711 -1.32933,1.43029 -1.8678,4.13943 -0.53846,2.70914 0.21875,4.15626 0.75722,1.43029 2.75963,1.43029 1.96875,0 3.29808,-1.43029 1.34615,-1.44712 1.88462,-4.15626 0.53846,-2.70914 -0.21875,-4.13943 -0.75722,-1.44711 -2.72597,-1.44711 z m 0.85817,-4.3077 q 4.86299,0 7.06733,2.625 2.22115,2.625 1.29567,7.26924 -0.92548,4.64424 -4.18991,7.26925 -3.26443,2.625 -8.12742,2.625 -4.87982,0 -7.10097,-2.625 -2.22116,-2.62501 -1.29568,-7.26925 0.92548,-4.64424 4.18991,-7.26924 3.28126,-2.625 8.16107,-2.625 z"
         style="font-style:italic;font-weight:bold;-inkscape-font-specification:'sans-serif Bold Italic'"
         id="path63567" />
      <path
         d="m 158.36874,113.70775 -2.28846,11.47598 h -6.05771 l 0.37019,-1.86779 1.37982,-6.91588 q 0.48798,-2.43991 0.55528,-3.36539 0.0841,-0.92548 -0.0841,-1.36298 -0.23558,-0.58895 -0.79087,-0.90866 -0.53846,-0.33654 -1.3125,-0.33654 -1.88462,0 -3.2476,1.46395 -1.36298,1.44712 -1.88462,4.02164 l -1.85097,9.27165 h -6.02404 l 3.76923,-18.84619 h 6.02405 l -0.55529,2.75962 q 1.69953,-1.64904 3.38222,-2.42308 1.6827,-0.79086 3.53366,-0.79086 3.26443,0 4.56011,2.0024 1.29567,2.00241 0.52163,5.82213 z"
         style="font-style:italic;font-weight:bold;-inkscape-font-specification:'sans-serif Bold Italic'"
         id="path63569" />
      <path
         d="m 163.11393,112.81592 h 10.56733 l -0.97596,4.89664 h -10.56733 z"
         style="font-style:italic;font-weight:bold;-inkscape-font-specification:'sans-serif Bold Italic'"
         id="path63571" />
      <path
         d="m 177.23176,117.84718 2.30529,-11.50964 h 6.0577 l -0.37019,1.88462 q -0.31971,1.53125 -0.8077,3.85337 -0.47115,2.3053 -0.62259,3.07934 -0.45433,2.27164 -0.53846,3.28125 -0.0841,0.99279 0.11778,1.44712 0.25241,0.58894 0.77404,0.90866 0.53847,0.31971 1.31251,0.31971 1.88461,0 3.2476,-1.44712 1.37981,-1.44712 1.88462,-4.02164 l 1.86779,-9.30531 h 6.02405 l -3.76924,18.84619 h -6.02405 l 0.53846,-2.72597 q -1.68269,1.64905 -3.36539,2.43991 -1.68269,0.77404 -3.51683,0.77404 -3.26443,0 -4.57693,-2.0024 -1.29568,-2.00241 -0.53846,-5.82213 z"
         style="font-style:italic;font-weight:bold;-inkscape-font-specification:'sans-serif Bold Italic'"
         id="path63573" />
      <path
         d="m 204.27266,106.33754 h 6.02405 l -3.76924,18.84619 h -6.02404 z m 1.46395,-7.336549 h 6.02405 l -0.97597,4.913469 h -6.02405 z"
         style="font-style:italic;font-weight:bold;-inkscape-font-specification:'sans-serif Bold Italic'"
         id="path63575" />
    </g>
  </g>
</svg>
